<svg xmlns="http://www.w3.org/2000/svg" xmlns:xlink="http://www.w3.org/1999/xlink" width="500" zoomAndPan="magnify" viewBox="0 0 375 374.999991" height="500" preserveAspectRatio="xMidYMid meet" version="1.0"><defs><clipPath id="id1"><path d="M 18.75 13.039062 L 356.25 13.039062 L 356.25 361.789062 L 18.75 361.789062 Z M 18.75 13.039062 " clip-rule="nonzero"/></clipPath></defs><g clip-path="url(#id1)"><path fill="#ff4db2" d="M 19.507812 41.488281 L 18.75 16.847656 C 18.75 15.710938 19.128906 14.953125 19.886719 14.195312 C 20.644531 13.4375 21.40625 13.058594 22.542969 13.058594 L 87.007812 13.058594 C 88.144531 13.058594 88.90625 13.4375 89.664062 14.195312 L 188.257812 111.988281 L 286.09375 14.195312 C 286.855469 13.4375 287.613281 13.058594 288.75 13.058594 L 336.910156 13.058594 C 338.046875 13.058594 339.566406 13.816406 339.945312 14.953125 L 355.492188 39.210938 C 356.25 40.351562 356.25 41.488281 355.871094 42.625 C 355.871094 43.003906 355.492188 43.761719 355.113281 44.140625 L 190.535156 205.988281 C 189.773438 206.746094 189.015625 207.125 187.878906 207.125 C 186.742188 207.125 185.984375 206.746094 185.226562 205.988281 L 20.644531 44.140625 C 19.886719 43.382812 19.507812 42.625 19.507812 41.488281 Z M 19.507812 196.511719 C 19.507812 197.648438 19.886719 198.40625 20.644531 199.164062 L 185.226562 360.632812 C 185.984375 361.390625 186.742188 361.773438 187.878906 361.773438 C 189.015625 361.773438 189.773438 361.390625 190.535156 360.632812 L 355.113281 199.164062 C 355.492188 198.785156 355.871094 198.40625 355.871094 197.648438 C 356.25 196.511719 356.25 194.996094 355.492188 194.238281 L 339.945312 169.980469 C 339.183594 168.84375 338.046875 168.085938 336.910156 168.085938 L 288.75 168.085938 C 287.613281 168.085938 286.855469 168.464844 286.09375 169.222656 L 188.257812 266.632812 L 89.664062 168.84375 C 88.90625 168.085938 88.144531 167.707031 87.007812 167.707031 L 22.542969 167.707031 C 21.40625 167.707031 20.644531 168.085938 19.886719 168.84375 C 19.128906 169.601562 18.75 170.738281 18.75 171.496094 L 19.507812 196.511719 C 19.507812 196.132812 19.507812 196.132812 19.507812 196.511719 Z M 19.507812 196.511719 " fill-opacity="1" fill-rule="nonzero"/></g></svg>